<svg xmlns="http://www.w3.org/2000/svg" viewBox="0 0 651.82 243.38">
    <g id="colon">
        <path d="M651.82,164.92A31.42,31.42,0,1,1,620.4,133.5a31.42,31.42,0,0,1,31.42,31.42"
              fill="#006cb7"/>
        <path d="M651.82,84.89A31.42,31.42,0,1,1,620.4,53.47a31.42,31.42,0,0,1,31.42,31.42"
              fill="#006cb7"/>
    </g>
    <g id="lettering">
        <path d="M98,154.74c-29.61,0-53.61-21.91-53.61-56.32S68.41,42.1,98,42.1,151.63,64,151.63,98.42s-24,56.32-53.61,56.32M98,0a98,98,0,1,0,98,98A98,98,0,0,0,98,0m476.2,78.69a49.69,49.69,0,0,0-10.36-18.76,44.71,44.71,0,0,0-14.28-10.36,50,50,0,0,0-22.13-4.76q-15.12,0-24.93,5.6a62.72,62.72,0,0,0-17.36,16.53h-.84V6.35H440.63V192.4h43.69V112.59q0-13.73,7-22.41,7.33-8.68,19.16-8.68,12.39,0,18.31,8.68a24.32,24.32,0,0,1,3.94,9.24,66.55,66.55,0,0,1,.84,10.92V192.4H577.3V98.86a63.54,63.54,0,0,0-3.08-20.17M405.37,156.56a9.64,9.64,0,0,1-2.8-5.32,24.87,24.87,0,0,1-.84-7V76.74H427.5V49H401.73V6.35H359.16V49H339.83V76.74h19.32v76.74q0,3.92.28,7.56a35,35,0,0,0,2.24,11.21,29.83,29.83,0,0,0,9,12.6,37.83,37.83,0,0,0,13.44,6.72,74.13,74.13,0,0,0,19,2.24q9.52,0,16-.56a43.85,43.85,0,0,0,8.68-1.4V160.2H417.41q-7.84,0-12-3.64M291.94,141.15q0,11.76-8.12,19-8.4,7.28-22.13,7.28-9,0-14.56-3.64-5.61-3.92-5.6-12.89,0-8.41,6.16-12.88,5.88-3.92,19.88-7.28,3.64-.83,7.14-1.68a60.51,60.51,0,0,0,6.58-2,73.63,73.63,0,0,0,10.64-4.2Zm42.85,42.57a55.25,55.25,0,0,1-1.12-9.52V97.74a59.49,59.49,0,0,0-4.48-23.8A39.51,39.51,0,0,0,316,56.85a52.61,52.61,0,0,0-19.88-9,105.75,105.75,0,0,0-26-2.8q-16.53,0-28.85,4.2a57.9,57.9,0,0,0-19,10.36,44.33,44.33,0,0,0-12.32,16,47.06,47.06,0,0,0-4.2,18.21h40q1.12-9.67,7.57-14.5,5.6-4.54,16.8-4.55,10.64,0,15.68,4.21t5,11.51q0,7.59-9,11-6.45,2.25-21.29,4.49-3.64.57-7.56,1.12a129.8,129.8,0,0,0-20.73,4.22,62,62,0,0,0-17.36,8.14,38.91,38.91,0,0,0-11.48,13.2q-4.2,8.15-4.2,19.37a47.67,47.67,0,0,0,3.64,19.09A39.17,39.17,0,0,0,213,184.83a42.23,42.23,0,0,0,15.68,8.42A68.48,68.48,0,0,0,248.53,196q15.4,0,25.21-4.76a45.62,45.62,0,0,0,17.36-14.84h.56a54.52,54.52,0,0,0,1.68,9,16.26,16.26,0,0,0,3.08,7h42.29v-2q-3.09-1.68-3.92-6.72"/>
    </g>
    <g id="text">
        <path d="M243.74,236.63l10.18-28.55h6.95l10.26,28.55H264l-1.72-5.39H252.25l-1.72,5.39Zm12.34-17.53-2.28,7.23h6.91l-2.24-7.23c-.05-.13-.11-.28-.16-.44s-.16-.47-.24-.76c-.13-.51-.27-1-.4-1.56s-.24-1-.32-1.36h-.08l-.18.64q-.1.36-.22.72-.2.68-.44,1.56A9.34,9.34,0,0,1,256.08,219.1Z"/>
        <path d="M284.35,236.63l-9.46-28.55h7l4.43,14.77q.28.88.52,1.84.16.68.32,1.24t.38,1.4l.26,1h.08l.26-1q.18-.72.38-1.4t.32-1.24l.16-.64q.16-.6.36-1.2l4.39-14.77h6.83l-9.42,28.55Z"/>
        <path d="M308.74,237.23a11.77,11.77,0,0,1-4.63-.88,9.58,9.58,0,0,1-3.46-2.36,10.27,10.27,0,0,1-2-3.23,12.89,12.89,0,0,1,0-8.74,10.52,10.52,0,0,1,2.25-3.47,9.87,9.87,0,0,1,3.1-2.08,10.41,10.41,0,0,1,4.31-.88,10.58,10.58,0,0,1,4,.72,9.93,9.93,0,0,1,2.87,1.8,10.07,10.07,0,0,1,2.75,4.43,16.44,16.44,0,0,1,.8,5.51H304a6.15,6.15,0,0,0,1.48,3.39,4.34,4.34,0,0,0,3.27,1.24,4.09,4.09,0,0,0,2.24-.56,3.41,3.41,0,0,0,1.32-1.6h6.11a7.75,7.75,0,0,1-1.16,2.64,9.22,9.22,0,0,1-2.16,2.16,10.47,10.47,0,0,1-2.83,1.44A12.31,12.31,0,0,1,308.74,237.23Zm-.32-17.13a3.84,3.84,0,0,0-3,1.12,5.5,5.5,0,0,0-1.36,3h8.3a5.05,5.05,0,0,0-1.24-3A3.66,3.66,0,0,0,308.42,220.1Z"/>
        <path d="M326.95,216.19v3.19h.12a7.48,7.48,0,0,1,2.43-2.72,5.49,5.49,0,0,1,3-.8,3.72,3.72,0,0,1,1.28.16v5.39h-.16a5.77,5.77,0,0,0-4.67,1q-1.76,1.48-1.76,4.79v9.38H321V216.19Z"/>
        <path d="M336,213.23v-5.15h6.23v5.15Zm0,23.4V216.19h6.23v20.44Z"/>
        <path d="M344.44,236.63V232l8.27-9,.36-.36c.16-.16.31-.32.44-.48l1-1v-.12q-.72,0-1.36,0h-7.67v-4.79h16.49v4.67l-7.51,8.26-1.4,1.44-1,1.12v.12h2.32a5.88,5.88,0,0,1,.64,0h7.59v4.87Z"/>
        <path d="M373.94,237.27a11.33,11.33,0,0,1-4.63-.92,9.79,9.79,0,0,1-3.23-2.2,9.67,9.67,0,0,1-2.28-3.63,11.29,11.29,0,0,1-.72-4.07,11.64,11.64,0,0,1,.84-4.47,9.74,9.74,0,0,1,2.16-3.27,10.57,10.57,0,0,1,3.63-2.36,12,12,0,0,1,4.23-.72,11.62,11.62,0,0,1,4.67.92,10.14,10.14,0,0,1,3.23,2.16,10.42,10.42,0,0,1,2.08,3.27,11.19,11.19,0,0,1,.88,4.47,11.37,11.37,0,0,1-.88,4.47,10.51,10.51,0,0,1-2.08,3.23,9.8,9.8,0,0,1-3.23,2.2A11.62,11.62,0,0,1,373.94,237.27Zm0-4.51a3.87,3.87,0,0,0,3.39-1.76,9.6,9.6,0,0,0,0-9.14,3.87,3.87,0,0,0-3.39-1.76,3.75,3.75,0,0,0-3.39,1.76,9.6,9.6,0,0,0,0,9.14A3.75,3.75,0,0,0,373.94,232.76Z"/>
        <path d="M392.87,216.19V219H393a7.81,7.81,0,0,1,2.79-2.6,7.07,7.07,0,0,1,3.47-.8,7.43,7.43,0,0,1,3,.6,6.67,6.67,0,0,1,2.28,1.72,6.56,6.56,0,0,1,1.24,2.2,8.75,8.75,0,0,1,.56,3.19v13.34h-6.23V224.49a3.94,3.94,0,0,0-.84-2.63,3,3,0,0,0-2.45-1,3.33,3.33,0,0,0-2.81,1.4,4.82,4.82,0,0,0-.92,3v11.38h-6.23V216.19Z"/>
        <path d="M425.61,237.27a11.49,11.49,0,0,1-4.59-.88,10.19,10.19,0,0,1-3.27-2.24,10.36,10.36,0,0,1-2.2-3.55,11.74,11.74,0,0,1-.72-4.15,12,12,0,0,1,.8-4.43,10,10,0,0,1,2.08-3.31,9.5,9.5,0,0,1,3.47-2.32,12.25,12.25,0,0,1,8-.16,8.45,8.45,0,0,1,2.91,1.64,8,8,0,0,1,2,2.55,8.55,8.55,0,0,1,.92,3h-6a4.13,4.13,0,0,0-1.28-2.32,3.09,3.09,0,0,0-2.16-.76,3.75,3.75,0,0,0-3.31,1.64,8.14,8.14,0,0,0-1.08,4.51,8,8,0,0,0,1.08,4.43,3.65,3.65,0,0,0,3.27,1.64q3.23,0,3.71-3.51h6a9.37,9.37,0,0,1-.72,3,8,8,0,0,1-1.92,2.75,9.08,9.08,0,0,1-3,1.8A10.79,10.79,0,0,1,425.61,237.27Z"/>
        <path d="M447.45,237.27a11.33,11.33,0,0,1-4.63-.92,9.79,9.79,0,0,1-3.23-2.2,9.67,9.67,0,0,1-2.28-3.63,11.29,11.29,0,0,1-.72-4.07,11.64,11.64,0,0,1,.84-4.47,9.74,9.74,0,0,1,2.16-3.27,10.57,10.57,0,0,1,3.63-2.36,12,12,0,0,1,4.23-.72,11.62,11.62,0,0,1,4.67.92,10.14,10.14,0,0,1,3.23,2.16,10.42,10.42,0,0,1,2.08,3.27,11.19,11.19,0,0,1,.88,4.47,11.37,11.37,0,0,1-.88,4.47,10.51,10.51,0,0,1-2.08,3.23,9.8,9.8,0,0,1-3.23,2.2A11.62,11.62,0,0,1,447.45,237.27Zm0-4.51a3.87,3.87,0,0,0,3.39-1.76,9.6,9.6,0,0,0,0-9.14,3.87,3.87,0,0,0-3.39-1.76,3.75,3.75,0,0,0-3.39,1.76,9.6,9.6,0,0,0,0,9.14A3.75,3.75,0,0,0,447.45,232.76Z"/>
        <path d="M460.39,236.63V216.19h5.95v2.87h.12a7.14,7.14,0,0,1,2.6-2.59,6.74,6.74,0,0,1,3.57-.88,6.08,6.08,0,0,1,3.61,1.08,6.16,6.16,0,0,1,2.12,2.52h.08a7.66,7.66,0,0,1,2.75-2.72,8,8,0,0,1,6.59-.32,5.3,5.3,0,0,1,2.16,1.52,6.54,6.54,0,0,1,1.32,2.44,9.94,9.94,0,0,1,.4,2.28c0,.4,0,.8,0,1.2v13.06h-6.23V224.29a3.8,3.8,0,0,0-.76-2.56,2.62,2.62,0,0,0-2.2-.92.71.71,0,0,0-.32.08,2.77,2.77,0,0,0-2.24,1.24,4.8,4.8,0,0,0-.72,2.08,8.44,8.44,0,0,0-.08,1.2v11.22h-6.23V224.29a3.94,3.94,0,0,0-.72-2.56,2.76,2.76,0,0,0-2.25-.92,2.8,2.8,0,0,0-2.33,1.08,4.74,4.74,0,0,0-1,3.15v11.58Z"/>
        <path d="M494.52,243.38V216.19h5.95v2.45h.12a8.23,8.23,0,0,1,2.68-2.29,7.56,7.56,0,0,1,3.48-.76,8.34,8.34,0,0,1,3.84.88,7.92,7.92,0,0,1,2.6,2.2,10.31,10.31,0,0,1,1.8,3.63,14.6,14.6,0,0,1,.56,4.11,14.19,14.19,0,0,1-.72,4.67,9.12,9.12,0,0,1-1.72,3.23,8.48,8.48,0,0,1-2.68,2.12,8.57,8.57,0,0,1-3.8.84,7.57,7.57,0,0,1-3.32-.68,7,7,0,0,1-2.48-2.12h-.08v8.9Zm10.6-11a3.49,3.49,0,0,0,3-1.52,7,7,0,0,0,1.12-4.25,8.07,8.07,0,0,0-1-4.37,3.58,3.58,0,0,0-3.25-1.64,4.18,4.18,0,0,0-1.89.4,3.62,3.62,0,0,0-1.44,1.32,5.88,5.88,0,0,0-.8,1.8,10.26,10.26,0,0,0-.28,2.48,6.89,6.89,0,0,0,1.16,4.21A4.05,4.05,0,0,0,505.12,232.36Z"/>
        <path d="M530.74,236.63a2.34,2.34,0,0,1-.44-1,7.72,7.72,0,0,1-.24-1.28H530a6.52,6.52,0,0,1-2.48,2.12,8.24,8.24,0,0,1-3.59.68,9.72,9.72,0,0,1-2.83-.4,6,6,0,0,1-2.24-1.2,5.58,5.58,0,0,1-1.44-2,6.8,6.8,0,0,1-.52-2.72,6,6,0,0,1,.6-2.76,5.54,5.54,0,0,1,1.64-1.88,8.82,8.82,0,0,1,2.48-1.16,18.62,18.62,0,0,1,3-.6l1.08-.16a18.68,18.68,0,0,0,3-.64,1.65,1.65,0,0,0,1.28-1.56,2,2,0,0,0-.72-1.64,3.44,3.44,0,0,0-2.24-.6,3.74,3.74,0,0,0-2.4.65,2.85,2.85,0,0,0-1.08,2.07H517.8a6.69,6.69,0,0,1,.6-2.59,6.32,6.32,0,0,1,1.76-2.28,8.27,8.27,0,0,1,2.72-1.48,12.75,12.75,0,0,1,4.11-.6,15.1,15.1,0,0,1,3.71.4,7.51,7.51,0,0,1,2.84,1.28,5.64,5.64,0,0,1,1.88,2.44,8.49,8.49,0,0,1,.64,3.39V234a7.81,7.81,0,0,0,.16,1.36,1.24,1.24,0,0,0,.56,1v.28Zm-5-3.55a4.64,4.64,0,0,0,3.15-1,3.48,3.48,0,0,0,1.16-2.72v-2.6a10.52,10.52,0,0,1-1.52.6,8.94,8.94,0,0,1-.94.28l-1,.24a9.4,9.4,0,0,0-2.83,1,2.13,2.13,0,0,0-.88,1.84,2.08,2.08,0,0,0,.8,1.84A3.75,3.75,0,0,0,525.79,233.08Z"/>
        <path d="M544.83,216.19V219H545a7.81,7.81,0,0,1,2.8-2.6,7.07,7.07,0,0,1,3.47-.8,7.43,7.43,0,0,1,3,.6,6.68,6.68,0,0,1,2.28,1.72,6.57,6.57,0,0,1,1.24,2.2,8.76,8.76,0,0,1,.56,3.19v13.34H552.1V224.49a3.94,3.94,0,0,0-.84-2.63,3,3,0,0,0-2.45-1,3.33,3.33,0,0,0-2.81,1.4,4.82,4.82,0,0,0-.92,3v11.38h-6.23V216.19Z"/>
        <path d="M561,243.38v-4.87h2.16a3,3,0,0,0,2.12-.64,2.19,2.19,0,0,0,.64-1.68,6,6,0,0,0-.28-1.64q-.28-.92-.88-2.52l-.52-1.4-5.55-14.45h6.59l2.83,8.82q.08.28.16.6a8.31,8.31,0,0,1,.28,1l.44,1.52.22.88c.07.27.13.49.18.68h.08l.36-1.56q.16-.72.4-1.52t.44-1.56l2.72-8.82h6.27L572.58,237q-.16.44-.28.84a16.53,16.53,0,0,1-1,2.16,8.55,8.55,0,0,1-1.56,2,5.21,5.21,0,0,1-2,1.08,9.23,9.23,0,0,1-2.72.36Z"/>
    </g>
</svg>