<?xml version="1.0" encoding="utf-8"?>
<!-- Generator: Adobe Illustrator 21.1.0, SVG Export Plug-In . SVG Version: 6.00 Build 0)  -->
<svg version="1.1" xmlns="http://www.w3.org/2000/svg" xmlns:xlink="http://www.w3.org/1999/xlink" x="0px" y="0px"
	 viewBox="0 0 1500 685" style="enable-background:new 0 0 1500 685;" xml:space="preserve">
<style type="text/css">
	.st0{fill:#000000;}
</style>
<g id="Layer_1">
	<g>
		<path class="st0" d="M639.4,42.8c-2.4-7.6-9-13.3-16.8-14.3c-9.3-1.2-17.5,3.9-21.1,11.5l-55.6,111.4c-2.7,5.4-9.4,11.2-17.9,11.2
			c-9.8,0-15.9-6.1-18.7-11.4L449.4,39c-3.6-6.8-10.6-10.9-18.4-10.7c-7.2,0.2-13.6,4-17.2,10.2c-3.6,6.2-3.8,13.7-0.4,20
			l87.3,163.7c3.2,6,3.3,13.1,0.3,19.1l-47.2,94.6c-3,5.9-3.2,12.7-0.7,18.5c2.3,5.5,6.7,9.4,12.4,11.2c2.1,0.6,4.2,1,6.2,1
			c7.5,0,14.6-4.2,18.1-11.2L638.3,57.6C640.3,53.3,641.1,48.2,639.4,42.8z"/>
		<path class="st0" d="M951.8,16.9c111.3,0,179.4,85.5,179.4,180.3c0,99.4-77,180.3-179.4,180.3c-123.7,0-179.8-96.4-179.8-180.3
			C771.9,100.4,847.4,16.9,951.8,16.9z M951.3,340.8c77.5,0,137.1-61.1,137.1-143.6c0-81-55.6-143.6-137.1-143.6
			c-77,0-136.6,60.6-136.6,143.6C814.7,279.7,874.3,340.8,951.3,340.8z"/>
		<path class="st0" d="M248.5,333.9l-66.2-90.3c-7.5-10.2-4-24.3,7-30.3c33-15.1,56-48.4,56-87.1c0-23.7-8.7-45.5-23.1-62.2
			c-1.3-1.6-2.8-3.1-4.2-4.6c-0.6-0.6-1.2-1.2-1.9-1.9c-1.5-1.4-3-2.9-4.6-4.2c-1.3-1.1-2.6-2.1-3.9-3.1c-0.2-0.2-0.4-0.3-0.6-0.5
			c-10.1-7.6-21.6-13.2-34.2-16.4c-12.5-3.5-26.8-5.6-43.2-5.6H52.6C41.2,27.9,32,37.1,32,48.5v297.6h0c0,0,0,0,0,0
			c0,11.3,9.2,20.5,20.5,20.5s20.5-9.2,20.5-20.5c0,0,0-100.4,0-100.4c0-11.4,9.2-20.6,20.6-20.6l15.4,0.1c6.6,0,12.8,3.2,16.7,8.5
			l90.2,124.6c4.2,5.5,11,8.9,18.6,8c9-1,16.3-8.1,17.8-17C253.3,343.5,251.6,338.1,248.5,333.9z M93.5,187.3
			c-11.4,0-20.6-9.2-20.6-20.6V86.2c0-11.4,9.2-20.6,20.6-20.6l49.8,0c33.6,0,60.9,27.3,60.9,60.9c0,33.6-27.3,60.9-60.9,60.9
			L93.5,187.3z"/>
		<path class="st0" d="M1451.1,27.9h-177.9v0c-0.1,0-0.2,0-0.2,0c-11.3,0-20.4,9.1-20.4,20.4c0,11.3,9.1,20.4,20.4,20.4
			c0.1,0,0.2,0,0.2,0v0h48c11.2,0,20.4,9.1,20.4,20.4v256.7c0,11.2,8.7,20.7,19.9,21.1c11.7,0.4,21.4-9,21.4-20.6V89
			c0-11.2,9.1-20.4,20.4-20.4h48.5c11.5,0,20.8-9.5,20.4-21.1C1471.5,36.4,1462.1,27.9,1451.1,27.9z"/>
	</g>
	<g>
		<path class="st0" d="M39,602.8c5-2.3,11-0.4,13.7,4.5c10.5,18.7,26.1,28.1,47,28.1c17.3,0,29.6-5.9,34.6-14.4
			c5-8.5,6.4-14.7,6.4-21.7c0-11.1-3.5-19.6-10.3-25.5c-6.7-5.9-18.8-12.6-35.5-19.9c-18.5-8.2-32.2-16.4-40.7-24.3
			S41.4,510,41.4,495c0-14.7,5.3-26.7,15.8-36.3c10.5-9.7,24-14.4,40.1-14.4c20.5,0,36.6,7.3,48.2,21.9c4.1,5.2,2.4,12.9-3.5,15.9
			l-0.7,0.4c-4.4,2.2-9.9,1.2-13-2.8c-7.5-9.6-18-14.4-31.2-14.4c-18.5,0-32.8,12.3-32.8,29c0,10.4,2.6,17.4,11.7,24.4
			c0.2,0.2,0.5,0.3,0.7,0.5c4.6,3,8.2,5.4,11.2,7.2c0.3,0.2,0.5,0.3,0.8,0.4l17.2,7.7c20.8,9.1,35.5,18.2,44.3,27.3
			c9.1,8.8,13.5,21.1,13.5,37.2c0,16.7-5.6,30.5-17,41.3c-11.1,10.8-27,16.1-47.2,16.1c-29,0-53-13-66.2-38.8
			c-2.7-5.4-0.5-11.9,4.9-14.4L39,602.8z"/>
		<path class="st0" d="M326.4,646.6V476.8c0-6.1-4.9-11.1-11.1-11.1h-31.8c-6.1,0-11.1-4.9-11.1-11.1v0c0-6.1,5-11.1,11.1-11.1
			h109.7c6.1,0,11.1,5,11.1,11.1v0c0,6.1-4.9,11.1-11.1,11.1h-31.8c-6.1,0-11.1,5-11.1,11.1v169.8c0,6.1-4.9,11.1-11.1,11.1h-1.8
			C331.3,657.7,326.4,652.7,326.4,646.6z"/>
		<path class="st0" d="M534.1,443.6h1.8c6,0,10.8,4.8,10.8,10.8v122.8c0,37.5,21,57.7,55,57.7c33.9,0,55-20.1,55-57.7V454.4
			c0-6,4.8-10.8,10.8-10.8h1.8c6,0,10.8,4.8,10.8,10.8v125.2c0,24.6-7.2,43.5-21.6,57.1c-14.4,13.2-33.3,19.8-56.8,19.8
			c-23.4,0-42.3-6.6-56.8-19.8c-14.4-13.5-21.6-32.4-21.6-57.1V454.4C523.3,448.4,528.1,443.6,534.1,443.6z"/>
		<path class="st0" d="M813.9,645.5V454.6c0-6.1,4.9-11,11-11h57.4c33.9,0,60.8,9.8,80.3,29.3c19.9,19.5,29.6,45.2,29.6,77.3
			c0,32.1-9.8,57.7-29.3,77.3c-19.5,19.2-46.4,29-80.3,29h-57.7C818.8,656.5,813.9,651.6,813.9,645.5z M837.7,623.5
			c0,6.1,4.9,11,11,11h32.1c57.4,0,87.7-33,87.7-84.3c0-51.6-30.2-84.6-88-84.6h-31.8c-6.1,0-11,4.9-11,11V623.5z"/>
		<path class="st0" d="M1114.8,645.5V454.6c0-6.1,4.9-11,11-11h1.8c6.1,0,11,4.9,11,11v190.9c0,6.1-4.9,11-11,11h-1.8
			C1119.7,656.5,1114.8,651.6,1114.8,645.5z"/>
		<path class="st0" d="M1260.2,551.2c0-30,10.2-55.1,30.6-75.3c20.7-20.1,45.8-30.3,75.3-30.3c29.5,0,54.6,10.2,75,30.3
			c20.7,20.1,30.9,45.2,30.9,75.3c0,30-10.2,55.4-30.9,75.6c-20.4,20.1-45.5,30-75,30c-29.5,0-54.6-9.9-75.3-30
			C1270.4,606.6,1260.2,581.3,1260.2,551.2z M1282.6,551.2c0,24.2,7.9,44.6,23.6,60.7c16,16,35.9,23.9,59.8,23.9
			c23.9,0,43.8-7.9,59.5-23.9c15.8-16,23.6-36.5,23.6-60.7c0-24.2-7.9-44.3-23.6-60.4c-15.8-16-35.6-24.2-59.5-24.2
			c-23.9,0-43.8,8.2-59.8,24.2C1290.5,506.9,1282.6,527,1282.6,551.2z"/>
	</g>
</g>
<g id="Layer_2">
</g>
</svg>
